<svg data-v-fde0c5aa="" xmlns="http://www.w3.org/2000/svg" viewBox="0 0 300 300" class="iconLeft"><!----><defs data-v-fde0c5aa=""><!----></defs><rect data-v-fde0c5aa="" fill="transparent" x="0" y="0" width="300px" height="300px" class="logo-background-square"></rect><defs data-v-fde0c5aa=""><!----></defs><g data-v-fde0c5aa="" id="666643e4-447b-4fce-8d1a-02ee0ecfaea7" fill="#000000" transform="matrix(3.441430486585954,0,0,3.441430486585954,98.97546704854766,121.09198276397663)"><path d="M6.44 13.02L4.72 9.56L3.96 10.60L3.96 13.02L0.70 13.02L0.70 3.78L3.96 3.78L3.96 7.22L6.37 3.78L9.84 3.78L7.01 7.45L10.09 13.02L6.44 13.02ZM16.49 13.02L16.07 11.26L13.58 11.26L13.15 13.02L9.90 13.02L12.89 3.78L16.81 3.78L19.82 13.02L16.49 13.02ZM14.07 9.23L15.60 9.23L14.85 6.15L14.81 6.15L14.45 7.71L14.07 9.23ZM26.11 13.02L24.47 9.95L23.58 9.95L23.58 13.02L20.38 13.02L20.38 3.78L25.40 3.78L25.40 3.78Q27.24 3.78 28.19 4.56L28.19 4.56L28.19 4.56Q29.13 5.33 29.13 6.87L29.13 6.87L29.13 6.87Q29.13 8.90 27.47 9.60L27.47 9.60L29.65 13.02L26.11 13.02ZM23.58 6.10L23.58 7.81L24.74 7.81L24.74 7.81Q25.35 7.81 25.61 7.62L25.61 7.62L25.61 7.62Q25.87 7.43 25.87 6.96L25.87 6.96L25.87 6.96Q25.87 6.50 25.61 6.30L25.61 6.30L25.61 6.30Q25.35 6.10 24.74 6.10L24.74 6.10L23.58 6.10ZM33.52 3.78L33.52 13.02L30.25 13.02L30.25 3.78L33.52 3.78ZM46.79 3.78L46.79 13.02L43.95 13.02L43.95 9.81L43.99 6.71L43.95 6.71L42.15 13.02L39.55 13.02L37.79 6.71L37.73 6.71L37.77 9.81L37.77 13.02L34.92 13.02L34.92 3.78L39.48 3.78L40.54 7.88L40.95 9.60L40.98 9.60L41.38 7.88L42.45 3.78L46.79 3.78Z"></path></g><defs data-v-fde0c5aa=""><linearGradient data-v-fde0c5aa="" gradientTransform="rotate(25)" id="c1aaf22a-35e5-463b-86d1-9b452a4dd44e" x1="0%" y1="0%" x2="100%" y2="0%"><stop data-v-fde0c5aa="" offset="0%" stop-color="#20484F" stop-opacity="1"></stop><stop data-v-fde0c5aa="" offset="100%" stop-color="#4E9BAB" stop-opacity="1"></stop></linearGradient></defs><g data-v-fde0c5aa="" id="82d62cc9-5eef-406c-b260-0ce3bb1f70e8" stroke="none" fill="url(#c1aaf22a-35e5-463b-86d1-9b452a4dd44e)" transform="matrix(1.511542358175771,0,0,1.511542358175771,40.00755771232582,125.81532244937756)"><path d="M16 23.787L8.102 16 16 8.213 23.898 16 16 23.787zM9.525 16L16 22.383 22.475 16 16 9.617 9.525 16z"></path><path d="M15.915 31.778L-.005 16.084 16.085.222l15.92 15.694-16.09 15.862zM1.419 16.084l14.496 14.29 14.666-14.458-14.496-14.29L1.419 16.084z"></path><path d="M15.5.924h1v30.152h-1z"></path></g><!----></svg>